arm26_elbow_motion
version=1
nRows=380
nColumns=2
inDegrees=no
endheader
time	r_elbow_flex
23.475915	0.58966672
23.485974	0.62615103
23.507720	0.66323041
23.523804	0.70067290
23.533182	0.73832174
23.543562	0.77669746
23.549734	0.81583624
23.575817	0.85596800
23.591093	0.89702418
23.611919	0.93915843
23.618892	0.98242823
23.623852	1.02680492
23.654689	1.07124867
23.671323	1.11489751
23.690907	1.15730512
23.707936	1.19851611
23.726270	1.23924916
23.759114	1.27955402
23.777406	1.31823713
23.783508	1.35582683
23.795388	1.39366268
23.808537	1.43218446
23.826554	1.47216372
23.831822	1.51260433
23.896924	1.55288025
23.923853	1.59337160
23.934631	1.63368718
23.952420	1.67293747
23.973608	1.70995429
23.990393	1.74984099
23.998150	1.78602359
24.006966	1.82017293
24.022214	1.85345425
24.038140	1.88704681
24.047449	1.92141728
24.057848	1.95696813
24.075063	1.98756166
24.083333	2.01867425
24.116548	2.04897627
24.128166	2.07766120
24.143328	2.10369330
24.154622	2.12606811
24.162395	2.14439663
24.191485	2.15838382
24.200503	2.16898262
24.224612	2.17572602
24.235399	2.17872479
24.259710	2.17812427
24.274713	2.17407321
24.310586	2.16704529
24.325417	2.15752616
24.332874	2.14604725
24.356891	2.13302252
24.373779	2.11878832
24.384946	2.10353772
24.405406	2.08720078
24.415040	2.07011708
24.425121	2.05229838
24.434481	2.03377300
24.443896	2.01419846
24.487141	1.99386048
24.511041	1.97267559
24.524130	1.95143694
24.535443	1.92978384
24.557349	1.90732737
24.573603	1.88443971
24.590362	1.86134752
24.599445	1.83825305
24.611431	1.81538360
24.623940	1.79180020
24.643042	1.76764732
24.658468	1.74377539
24.674052	1.71955205
24.683321	1.69463275
24.707085	1.67036853
24.725084	1.64666323
24.742202	1.62312776
24.757351	1.59736642
24.768073	1.57047267
24.778901	1.54581151
24.822028	1.52228226
24.832657	1.49664271
24.853657	1.46888902
24.869695	1.44008730
24.891150	1.41268184
24.941355	1.38348629
24.956852	1.34994136
24.975093	1.31564900
24.990029	1.28091021
24.998321	1.24239432
25.008973	1.20233338
25.023444	1.16230130
25.040368	1.12126330
25.048319	1.07728688
25.057525	1.02923742
25.073509	0.98077868
25.126732	0.93502554
25.132888	0.88752802
25.143425	0.83689728
25.157164	0.78732778
25.173001	0.74056855
25.182409	0.69492234
25.191426	0.64800947
25.208777	0.60185879
25.214228	0.55916308
25.239971	0.51946200
25.248846	0.48223484
25.260146	0.44797846
25.274345	0.41793961
25.293761	0.39266753
25.298240	0.37129596
25.357208	0.35304658
25.365402	0.33802673
25.377190	0.32603894
25.390320	0.31649405
25.399894	0.30914052
25.423793	0.30333923
25.448735	0.29816420
25.458405	0.29386077
25.476366	0.29121003
25.490101	0.29020349
25.499696	0.29057528
25.533331	0.29277579
25.592463	0.29743503
25.609609	0.30537929
25.624703	0.31711347
25.631804	0.33226121
25.645702	0.35058861
25.656626	0.37267751
25.664530	0.39800515
25.674563	0.42603634
25.682046	0.45677278
25.711474	0.48970202
25.725938	0.52446723
25.745300	0.56101136
25.759475	0.59930650
25.810771	0.63958349
25.830189	0.68944871
25.838551	0.74095393
25.842620	0.79334569
25.851697	0.84638618
25.867775	0.90040375
25.885103	0.95523211
25.903031	1.01075476
25.923048	1.05885420
25.931336	1.10627232
25.939481	1.15324696
25.996335	1.20035534
26.024136	1.24651159
26.032140	1.29142951
26.048087	1.33522505
26.060455	1.37783528
26.076027	1.42001280
26.091639	1.46192634
26.109604	1.50355227
26.131351	1.54528085
26.143390	1.58645148
26.157703	1.62624650
26.175384	1.66463200
26.189802	1.70145442
26.206318	1.74191162
26.222486	1.78049079
26.230541	1.81705510
26.256116	1.85171885
26.273205	1.88475836
26.280687	1.91745894
26.290026	1.94979835
26.325523	1.97643482
26.331374	2.00254004
26.342376	2.02787107
26.358001	2.05316229
26.365486	2.07832672
26.373750	2.10215086
26.391165	2.12384264
26.406878	2.14372556
26.428822	2.16146121
26.438544	2.17639215
26.451067	2.18815709
26.459353	2.19675636
26.472820	2.20194639
26.504433	2.20382534
26.522697	2.20196303
26.539632	2.19631953
26.557710	2.18775760
26.565915	2.17615654
26.583423	2.16138004
26.594268	2.14378057
26.609462	2.12361673
26.620541	2.10102862
26.639843	2.07653557
26.653324	2.05020648
26.669280	2.02192999
26.711693	1.99300810
26.720743	1.96420345
26.737828	1.93542851
26.746798	1.90707482
26.765596	1.87918754
26.776205	1.85191392
26.823472	1.82594600
26.839478	1.80106391
26.856120	1.77752547
26.883339	1.75605227
26.894996	1.73553286
26.910509	1.71553533
26.923052	1.69576060
26.931148	1.67646325
26.944475	1.65561931
26.955881	1.63175798
26.972535	1.60541175
26.980866	1.57843434
27.001952	1.55095240
27.008928	1.52294634
27.058712	1.49363515
27.073585	1.46450362
27.093278	1.43610439
27.146411	1.40776672
27.183764	1.37806150
27.201679	1.33568625
27.222487	1.29576257
27.238618	1.25548158
27.255824	1.20873111
27.265671	1.16171900
27.272470	1.11342416
27.283775	1.06329257
27.289146	1.02291809
27.303149	0.97802397
27.339014	0.93123381
27.354284	0.88806961
27.372359	0.84276406
27.386061	0.79669992
27.392058	0.75113311
27.404294	0.70546207
27.436821	0.65944598
27.449416	0.61438368
27.469606	0.57163386
27.477753	0.53167419
27.492254	0.49418632
27.505954	0.45986145
27.523530	0.43023536
27.556037	0.40568464
27.563929	0.38549360
27.572916	0.36900736
27.589715	0.35627323
27.605894	0.34729812
27.614880	0.34094147
27.631195	0.33615603
27.641303	0.33295686
27.672869	0.33161856
27.682012	0.33186655
27.689924	0.33285186
27.707156	0.33450895
27.728503	0.33768910
27.761900	0.34274782
27.769123	0.34887095
27.778703	0.35589849
27.792092	0.36435202
27.810095	0.37498023
27.822492	0.38830683
27.841365	0.40405141
27.850045	0.42264043
27.866266	0.44467717
27.876297	0.46970312
27.962455	0.49749166
28.007084	0.52791356
28.022354	0.56584397
28.030617	0.61348306
28.041092	0.66372743
28.050544	0.71614758
28.067340	0.77112412
28.077214	0.82851467
28.092968	0.88786978
28.103410	0.94358999
28.142103	0.99291367
28.149976	1.04241868
28.176282	1.09261139
28.182014	1.14338889
28.191512	1.19420615
28.205903	1.24528882
28.225597	1.29633311
28.230946	1.34689772
28.238150	1.39629580
28.271113	1.44360401
28.282260	1.48779959
28.294834	1.52926941
28.301271	1.56790205
28.321851	1.60346655
28.323859	1.63634333
28.356456	1.66661245
28.389955	1.69533247
28.402619	1.72385334
28.417178	1.75262086
28.442708	1.78139834
28.473743	1.81021416
28.511346	1.84056163
28.536295	1.87288594
28.541167	1.90271756
28.657354	1.93195219
28.677481	1.97755545
28.704329	2.02129246
28.721073	2.06344460
28.739044	2.10240383
28.750505	2.13757069
28.760603	2.17261807
28.775205	2.20481391
28.791286	2.21650537
28.806767	2.22520575
28.820479	2.23068147
28.837152	2.23325712
28.871862	2.23320840
28.888507	2.22854427
28.901417	2.22107654
28.925784	2.21120202
28.929965	2.19681222
28.954183	2.18079009
28.972360	2.16309877
28.983662	2.14389775
28.993101	2.12521131
29.045851	2.10567072
29.073892	2.08176310
29.082612	2.05716920
29.091552	2.03161206
29.109002	2.00596077
29.115889	1.98054248
29.147672	1.95510421
29.171872	1.92973907
29.180355	1.90838281
29.205163	1.88997342
29.221799	1.87218641
29.236704	1.85428782
29.245937	1.83587253
29.255429	1.81707529
29.267375	1.79843185
29.286146	1.77950374
29.294320	1.76077378
29.310784	1.74142478
29.331803	1.72225551
29.340721	1.70389370
29.350766	1.68462471
29.366733	1.66437205
29.382990	1.64409960
29.395799	1.62317576
29.399949	1.60025992
29.486638	1.57363618
29.499819	1.54395421
29.512685	1.51549106
29.537987	1.48514792
29.545678	1.45165862
29.562267	1.41613273
29.569960	1.38085232
29.581442	1.34622673
29.592827	1.31015334
29.640990	1.26943583
29.655621	1.21931155
29.664047	1.16780951
29.754685	1.11488828
29.765557	1.04492393
29.771370	0.96652538
29.788393	0.88797626
29.795537	0.80972494
29.806297	0.74002575
29.856698	0.67268667
29.868126	0.60800335
29.886129	0.56144163
29.902970	0.52564821
29.921487	0.49398881
29.938072	0.46664653
29.954792	0.44309478
29.971297	0.42271936
29.981442	0.40488053
29.999135	0.38995219
30.005811	0.37760886
30.015852	0.36728939
30.025338	0.35941369
30.040752	0.35389784
30.110109	0.35009323
30.116936	0.34788497
30.127051	0.34701881
30.138031	0.34695333
30.146008	0.34787454
30.161650	0.34967847
